<svg width="22" height="25" viewBox="0 0 22 25" fill="none" xmlns="http://www.w3.org/2000/svg">
<path d="M7.38165 16.1584C7.77736 16.3496 8.25312 16.1838 8.4443 15.7881C8.63548 15.3924 8.46968 14.9166 8.07398 14.7254C7.67827 14.5343 7.20251 14.7001 7.01133 15.0958C6.82015 15.4915 6.98595 15.9672 7.38165 16.1584Z" fill="#575757"/>
<path d="M9.49688 19.7254C10.2648 20.0964 11.188 19.7747 11.559 19.0068C11.93 18.2389 11.6082 17.3157 10.8404 16.9447C10.0725 16.5737 9.14925 16.8954 8.77826 17.6633C8.40727 18.4312 8.72901 19.3544 9.49688 19.7254Z" fill="#575757"/>
<path d="M16.1289 11.1218L18.3047 6.61839L18.8339 6.87407C19.2085 7.05504 19.6589 6.89808 19.8399 6.52351C20.0208 6.14891 19.8639 5.69851 19.4893 5.51754C19.3119 5.43181 12.3027 2.04538 11.8071 1.80595C11.4325 1.62498 10.9821 1.78195 10.8011 2.15651C10.6202 2.53108 10.7771 2.98148 11.1517 3.16245L11.6809 3.41814L9.50513 7.92159C2.54371 8.56705 0.660747 18.1719 7.12813 21.2965C13.6042 24.4254 19.9495 16.9749 16.1289 11.1218ZM10.0169 9.39842C10.2968 9.38916 10.5484 9.22537 10.6702 8.97325L13.0374 4.07357L16.9481 5.96298L14.5809 10.8627C14.4591 11.1148 14.4872 11.4137 14.6538 11.6387C15.8302 13.2269 15.9644 14.8731 15.5923 16.2646L11.2912 14.1866C11.5807 13.4928 11.2794 12.683 10.5944 12.352L6.80026 10.519C7.61344 9.88053 8.67642 9.44287 10.0169 9.39842ZM7.78353 19.94C4.35956 18.2857 3.87055 14.3112 5.71758 11.669L9.86988 13.6752C9.58031 14.3689 9.88169 15.1788 10.5667 15.5097L15.0157 17.6592C13.637 20.0657 10.6901 21.3443 7.78353 19.94Z" fill="#575757"/>
</svg>
