<svg width="56" height="62" viewBox="0 0 56 62" fill="none" xmlns="http://www.w3.org/2000/svg">
<path d="M49.226 0.613403H1.82021C1.37165 0.613403 0.923096 0.987373 0.923096 1.51051V57.6647C0.923096 58.1133 1.29706 58.5619 1.82021 58.5619L31.9536 58.5624C32.2524 58.5624 32.4772 58.1884 32.3275 57.8895C29.2617 52.9544 29.486 46.4493 33.4489 41.6639C34.2714 40.6171 35.2436 39.7946 36.2904 39.0466C36.6644 38.8223 36.4401 38.2986 36.0661 38.2986L5.11027 38.2992C5.03568 38.2992 4.96057 38.2246 4.96057 38.1495V4.42702C4.96057 4.35244 5.03516 4.27733 5.11027 4.27733H45.8613C45.9359 4.27733 46.011 4.35191 46.011 4.42702V36.3549C46.011 36.5792 46.1607 36.7289 46.385 36.7289C47.4318 36.8786 48.4786 37.1775 49.5255 37.626C49.8243 37.7757 50.1237 37.5514 50.1237 37.252V1.51073C50.1237 0.987589 49.7497 0.613619 49.2266 0.613619L49.226 0.613403Z" fill="#C8C8C8"/>
<path d="M49.226 0.613403H1.82021C1.37165 0.613403 0.923096 0.987373 0.923096 1.51051V57.6647C0.923096 58.1133 1.29706 58.5619 1.82021 58.5619L31.9536 58.5624C32.2524 58.5624 32.4772 58.1884 32.3275 57.8895C29.2617 52.9544 29.486 46.4493 33.4489 41.6639C34.2714 40.6171 35.2436 39.7946 36.2904 39.0466C36.6644 38.8223 36.4401 38.2986 36.0661 38.2986L5.11027 38.2992C5.03568 38.2992 4.96057 38.2246 4.96057 38.1495V4.42702C4.96057 4.35244 5.03516 4.27733 5.11027 4.27733H45.8613C45.9359 4.27733 46.011 4.35191 46.011 4.42702V36.3549C46.011 36.5792 46.1607 36.7289 46.385 36.7289C47.4318 36.8786 48.4786 37.1775 49.5255 37.626C49.8243 37.7757 50.1237 37.5514 50.1237 37.252V1.51073C50.1237 0.987589 49.7497 0.613619 49.2266 0.613619L49.226 0.613403Z" fill="#C8C8C8"/>
<path d="M20.3156 18.8327L25.9072 13.2411L32.5025 19.8364L26.9109 25.428L20.3156 18.8327Z" fill="#C8C8C8"/>
<path d="M29.1376 27.9668C28.6558 28.4485 27.8747 28.4485 27.3929 27.9668C26.9111 27.485 26.9111 26.7039 27.3929 26.2221L33.2978 20.3171C33.7796 19.8354 34.5607 19.8354 35.0425 20.3171C35.5243 20.7989 35.5243 21.58 35.0425 22.0618L29.1376 27.9668Z" fill="#C8C8C8"/>
<path d="M19.5198 18.349C19.0381 18.8307 18.2569 18.8307 17.7751 18.349C17.2934 17.8672 17.2934 17.0861 17.7751 16.6043L23.6801 10.6993C24.1618 10.2176 24.943 10.2176 25.4248 10.6993C25.9065 11.1811 25.9065 11.9622 25.4248 12.444L19.5198 18.349Z" fill="#C8C8C8"/>
<path d="M22.9646 21.481L24.2619 22.7782L14.8675 32.1722C14.5092 32.5305 13.9256 32.5277 13.5673 32.1694C13.3881 31.9902 13.2999 31.757 13.2999 31.5223C13.2999 31.2874 13.3909 31.0542 13.5701 30.875L22.9646 21.481Z" fill="#C8C8C8"/>
<path d="M20.9531 32.4289C20.9531 31.0945 22.0436 29.9957 23.3887 29.9957H35.134C36.4792 29.9957 37.5698 31.0946 37.5698 32.4289H20.9531Z" fill="#C8C8C8"/>
<path d="M51.2449 41.9627C46.5341 38.0743 39.5053 38.7477 35.6174 43.458C31.7291 48.1688 32.4025 55.1975 37.1128 59.0854C41.8236 62.9738 48.8523 62.3004 52.7402 57.5901C56.6285 52.8798 55.9557 45.8511 51.2449 41.9627ZM49.1513 44.5048C51.9177 46.7481 52.7402 50.5612 51.3194 53.7017C51.2448 53.8514 51.0206 53.926 50.8709 53.7763L39.73 44.5799C39.5803 44.4302 39.5803 44.2059 39.73 44.1313C42.5715 42.187 46.3848 42.262 49.1512 44.5048L49.1513 44.5048ZM39.2065 56.6183C36.4401 54.375 35.6176 50.5619 37.0384 47.4215C37.113 47.2718 37.3372 47.1972 37.4869 47.3469L48.7028 56.5438C48.8525 56.6935 48.8525 56.9177 48.7028 56.9923C45.8613 58.9363 41.9736 58.8616 39.2066 56.6183H39.2065Z" fill="#C8C8C8"/>
</svg>
